# AST/ASF file generated using VICON BodyLanguage
# -----------------------------------------------
:version 1.10
:name VICON
:units
  mass 1.0
  length 0.45
  angle deg
:documentation
   .ast/.asf automatically generated from VICON data using
   VICON BodyBuilder and BodyLanguage model FoxedUp or BRILLIANT.MOD
:root
   order TX TY TZ RX RY RZ
   axis XYZ
   position 0 0 0  
   orientation 0 0 0 
:bonedata
  begin
     id 1 
     name lhipjoint
     direction 0.78388 -0.462562 0.414208 
     length 3.01181 
     axis 0 0 0  XYZ
  end
  begin
     id 2 
     name lfemur
     direction 0.34202 -0.939693 0  
     length 6.04673  
     axis 0 0 20  XYZ
    dof rx ry rz
    limits (-160.0 20.0)
           (-70.0 70.0)
           (-60.0 70.0)
  end
  begin
     id 3 
     name ltibia
     direction 0.34202 -0.939693 0   
     length 7.211   
     axis 0 0 20   XYZ
    dof rx
    limits (-10.0 170.0)
  end
  begin
     id 4 
     name lfoot
     direction 0.121887 -0.334882 0.934344   
     length 2.13567   
     axis -90 7.62852e-016 20   XYZ
    dof rx rz
    limits (-45.0 90.0)
           (-70.0 20.0)
  end
  begin
     id 5 
     name ltoes
     direction 1.53555e-011 -4.2179e-011 1   
     length 1.05957   
     axis -90 7.62852e-016 20   XYZ
    dof rx
    limits (-90.0 20.0)
  end
  begin
     id 6 
     name rhipjoint
     direction -0.769387 -0.475875 0.426129   
     length 2.92756  
     axis 0 0 0  XYZ 
  end
  begin
     id 7 
     name rfemur
     direction -0.34202 -0.939693 0   
     length 6.35468   
     axis 0 0 -20   XYZ
    dof rx ry rz
    limits (-160.0 20.0)
           (-70.0 70.0)
           (-70.0 60.0)
  end
  begin
     id 8 
     name rtibia
     direction -0.34202 -0.939693 0   
     length 7.37886   
     axis 0 0 -20   XYZ
    dof rx
    limits (-10.0 170.0)
 end
 begin
     id 9 
     name rfoot
     direction -0.101763 -0.279592 0.954711   
     length 2.21478  
     axis -90 -7.62852e-016 -20   XYZ
    dof rx rz
    limits (-45.0 90.0)
           (-20.0 70.0)
  end
  begin
     id 10 
     name rtoes
     direction -1.53494e-011 -4.21851e-011 1   
     length 1.10506   
     axis -90 -7.62852e-016 -20   XYZ
    dof rx
    limits (-90.0 20.0)
  end
  begin
     id 11 
     name lowerback
     direction 0.00747405 0.999267 0.0375481   
     length 2.13259   
     axis 0 0 0   XYZ
    dof rx ry rz
    limits (-20.0 45.0)
           (-30.0 30.0)
           (-30.0 30.0)
  end
  begin
     id 12 
     name upperback
     direction 0.00661626 0.996177 0.0871029   
     length 2.10528   
     axis 0 0 0   XYZ
    dof rx ry rz
    limits (-20.0 45.0)
           (-30.0 30.0)
           (-30.0 30.0)
  end
  begin
     id 13 
     name thorax
     direction 0.00320659 0.997679 0.0680167   
     length 2.11338   
     axis 0 0 0   XYZ
    dof rx ry rz
    limits (-20.0 45.0)
           (-30.0 30.0)
           (-30.0 30.0)
  end
  begin
     id 14 
     name lowerneck
     direction 0.0374841 0.973033 0.227602   
     length 1.42765   
     axis 0 0 0   XYZ
    dof rx ry rz
    limits (-20.0 45.0)
           (-30.0 30.0)
           (-30.0 30.0)
  end
  begin
     id 15 
     name upperneck
     direction 0.00481585 0.989155 -0.146795   
     length 1.47593   
     axis 0 0 0   XYZ
    dof rx ry rz
    limits (-20.0 45.0)
           (-30.0 30.0)
           (-30.0 30.0)
  end
  begin
     id 16
     name head
     direction -0.00292522 0.997206 -0.0746423  
     length 1.48116  
     axis 0 0 0   XYZ
    dof rx ry rz
    limits (-20.0 45.0)
           (-30.0 30.0)
           (-30.0 30.0)
  end
  begin
     id 17 
     name lclavicle
     direction 0.951444 0.305606 0.0368784  
     length 3.01855  
     axis 0 0 0   XYZ
    dof ry rz
    limits (-20.0 10.0)
           (0.0 20.0)
  end
  begin
     id 18 
     name lhumerus
     direction 1 -4.48977e-011 2.61664e-027   
     length 5.52731   
     axis 180 -30 -90   XYZ
    dof rx ry rz
    limits (-60.0 90.0)
           (-90.0 90.0)
           (-90.0 90.0)
  end
  begin
     id 19
     name lradius
     direction 1 -4.48944e-011 8.22157e-027   
     length 3.11059   
     axis 180 -30 -90   XYZ
    dof rx
    limits (-10.0 170.0)
  end
  begin
     id 20
     name lwrist
     direction 1 -4.48976e-011 1.5779e-026   
     length 1.5553   
     axis -1.15221e-014 90 90   XYZ
    dof ry
    limits (-180.0 0.0)
 end
  begin
     id 21 
     name lhand
     direction 1 -4.49025e-011 3.1558e-026   
     length 0.419626   
     axis -2.01367e-014 90 90   XYZ
    dof rx rz
    limits (-90.0 90.0)
           (-45.0 45.0)
  end
  begin
     id 22 
     name lfingers
     direction 1 -4.4904e-011 6.31161e-026   
     length 0.338313   
     axis -4.02734e-014 90 90   XYZ
    dof rx
    limits (0.0 90.0)
  end
  begin
     id 23
     name lthumb
     direction 0.707107 -6.35004e-011 0.707107   
     length 0.485752   
     axis -90 45 2.85299e-015   XYZ
    dof rx rz
    limits (-45.0 45.0)
           (-45.0 45.0)
  end
  begin
     id 24 
     name rclavicle
     direction -0.968876 0.223791 0.105816   
     length 3.04177  
     axis 0 0 0   XYZ 
    dof ry rz
    limits (-10.0 20.0)
           (-20.0 0.0)
  end
  begin
     id 25 
     name rhumerus
     direction -1 -4.48962e-011 -1.01384e-027  
     length 5.25396   
     axis 180 30 90   XYZ
    dof rx ry rz
    limits (-90.0 60.0)
           (-90.0 90.0)
           (-90.0 90.0)
  end
  begin
     id 26 
     name rradius
     direction -1 -4.48955e-011 8.88542e-027   
     length 3.10567   
     axis 180 30 90   XYZ
    dof rx
    limits (-10.0 170.0)
  end
  begin
     id 27 
     name rwrist
     direction -1 -4.48994e-011 1.5779e-026   
     length 1.55283   
     axis -1.15221e-014 -90 -90   XYZ
    dof ry
    limits (-180.0 0.0)
  end
  begin
     id 28
     name rhand
     direction -1 -4.48891e-011 3.1558e-026   
     length 0.498676   
     axis -2.01367e-014 -90 -90   XYZ
    dof rx rz
    limits (-90.0 90.0)
           (-45.0 45.0)
  end
  begin
     id 29
     name rfingers
     direction -1 -4.48972e-011 6.31161e-026   
     length 0.402045   
     axis -4.02734e-014 -90 -90   XYZ
    dof rx
    limits (0.0 90.0)
  end
  begin
     id 30
     name rthumb
     direction -0.707107 -6.34849e-011 0.707107   
     length 0.577259   
     axis -90 -45 -2.85299e-015   XYZ
    dof rx rz
    limits (-45.0 45.0)
           (-45.0 45.0)
  end
:hierarchy
  begin
    root lhipjoint rhipjoint lowerback
    lhipjoint lfemur
    lfemur ltibia
    ltibia lfoot
    lfoot ltoes
    rhipjoint rfemur
    rfemur rtibia
    rtibia rfoot
    rfoot rtoes
    lowerback upperback
    upperback thorax
    thorax lowerneck lclavicle rclavicle
    lowerneck upperneck
    upperneck head
    lclavicle lhumerus
    lhumerus lradius
    lradius lwrist
    lwrist lhand lthumb
    lhand lfingers
    rclavicle rhumerus
    rhumerus rradius
    rradius rwrist
    rwrist rhand rthumb
    rhand rfingers
  end

#!OML:ASF H:\Pregnant\Project 1\Capture day 1\Session 1\femalepreg.ASF
:FULLY-SPECIFIED
:DEGREES
1
root 1.57146 15.6959 31.6353 168.36 -82.817 -150.647
lowerback -27.0036 0.894725 1.02012
upperback -7.61397 -0.0203366 1.86045
thorax 6.46844 -0.316064 1.41917
lowerneck -20.5281 4.96761 6.37402
upperneck 26.524 5.37924 -2.44162
head 12.4608 2.60738 -1.12148
rclavicle -4.96962e-015 2.82274e-014
rhumerus -47.2336 -2.36401 -80.766
rradius 23.4033
rwrist -15.1356
rhand -17.6185 -30.9567
rfingers 7.12502
rthumb 8.63854 -60.7599
lclavicle -4.96962e-015 2.82274e-014
lhumerus -42.3963 -15.6409 92.8658
lradius 30.42
lwrist 35.2385
lhand -29.3165 4.4214
lfingers 7.12502
lthumb -2.65733 34.3846
rfemur -27.5035 19.733 22.3224
rtibia 26.1537
rfoot -12.2483 -10.8442
rtoes 4.75412
lfemur 0 0 0
ltibia 0
lfoot 0 0
ltoes 0
2
root 1.57623 15.6961 31.6366 168.497 -82.7749 -150.785
lowerback -26.9609 0.868901 1.00329
upperback -7.61854 -0.0503051 1.885
thorax 6.44302 -0.330562 1.44608
lowerneck -20.5685 5.02398 6.42043
upperneck 26.5419 5.4386 -2.43022
head 12.4806 2.63982 -1.11365
rclavicle -1.66234e-014 -1.37161e-014
rhumerus -47.115 -2.73311 -80.2726
rradius 23.1695
rwrist -14.6246
rhand -17.5794 -30.4896
rfingers 7.12502
rthumb 8.67628 -60.2913
lclavicle -1.66234e-014 -1.37161e-014
lhumerus -42.5002 -15.7434 92.9779
lradius 30.4779
lwrist 35.4203
lhand -29.4308 4.41211
lfingers 7.12502
lthumb -2.76774 34.3739
rfemur -27.5351 19.7135 22.3218
rtibia 26.1558
rfoot -12.218 -10.7733
rtoes 4.62779
lfemur 0 0 0
ltibia 0
lfoot 0 0
ltoes 0
3
root 1.58099 15.6969 31.6368 168.811 -82.7384 -151.111
lowerback -26.917 0.838129 0.958011
upperback -7.61385 -0.0768371 1.89627
thorax 6.42719 -0.342992 1.47591
lowerneck -20.5607 5.06798 6.49284
upperneck 26.503 5.48033 -2.43935
head 12.4689 2.66516 -1.12183
rclavicle 1.16786e-014 -2.04748e-014
rhumerus -47.0252 -3.03932 -79.8846
rradius 22.9914
rwrist -14.363
rhand -17.7493 -29.9213
rfingers 7.12502
rthumb 8.5123 -59.7297
lclavicle 1.16786e-014 -2.04748e-014
lhumerus -42.6076 -15.8678 93.0961
lradius 30.5451
lwrist 35.4883
lhand -29.5032 4.51367
lfingers 7.12502
lthumb -2.83769 34.4745
rfemur -27.569 19.7197 22.2927
rtibia 26.199
rfoot -12.2481 -10.7145
rtoes 4.88556
lfemur 0 0 0
ltibia 0
lfoot 0 0
ltoes 0
4
root 1.58524 15.6968 31.6361 169.388 -82.6991 -151.727
lowerback -26.8415 0.81066 0.838483
upperback -7.61098 -0.077384 1.90214
thorax 6.39313 -0.342673 1.55054
lowerneck -20.6714 5.1021 6.41786
upperneck 26.5869 5.51341 -2.3232
head 12.5199 2.68669 -1.05717
rclavicle 1.19022e-014 1.70955e-014
rhumerus -47.0503 -2.75877 -79.9149
rradius 23.1179
rwrist -14.8566
rhand -17.9066 -29.6297
rfingers 7.12502
rthumb 8.36044 -59.4442
lclavicle 1.19022e-014 1.70955e-014
lhumerus -42.7127 -15.9905 93.1979
lradius 30.6004
lwrist 35.7006
lhand -29.3148 4.43952
lfingers 7.12502
lthumb -2.65573 34.4027
rfemur -27.5759 19.6817 22.2511
rtibia 26.241
rfoot -12.2646 -10.6262
rtoes 4.85121
lfemur 0 0 0
ltibia 0
lfoot 0 0
ltoes 0
5
root 1.58962 15.6969 31.6357 169.85 -82.6581 -152.218
lowerback -26.7773 0.780717 0.747406
upperback -7.60824 -0.0901778 1.9151
thorax 6.36474 -0.348365 1.61282
lowerneck -20.7632 5.14205 6.34576
upperneck 26.6509 5.55843 -2.21756
head 12.5602 2.71267 -0.99512
rclavicle 1.03368e-014 -7.15625e-015
rhumerus -47.051 -2.53978 -79.8987
rradius 23.1935
rwrist -15.1759
rhand -18.0033 -29.3198
rfingers 7.12502
rthumb 8.2671 -59.138
lclavicle 1.03368e-014 -7.15625e-015
lhumerus -42.8302 -16.1189 93.325
lradius 30.6716
lwrist 35.8797
lhand -29.2385 4.43859
lfingers 7.12502
lthumb -2.58209 34.4027
rfemur -27.5984 19.656 22.2184
rtibia 26.2916
rfoot -12.2832 -10.5492
rtoes 4.85999
lfemur 0 0 0
ltibia 0
lfoot 0 0
ltoes 0
6
root 1.59388 15.6968 31.6352 170.334 -82.6165 -152.733
lowerback -26.71 0.753113 0.651996
upperback -7.60445 -0.0982515 1.92347
thorax 6.33595 -0.351671 1.674
lowerneck -20.8664 5.17733 6.25955
upperneck 26.7253 5.5967 -2.09795
head 12.6056 2.73595 -0.926199
rclavicle -1.01877e-014 -3.29983e-014
rhumerus -47.0906 -2.12038 -80.048
rradius 23.3761
rwrist -15.7139
rhand -18.0683 -29.1107
rfingers 7.12502
rthumb 8.2044 -58.9314
lclavicle -1.01877e-014 -3.29983e-014
lhumerus -42.9576 -16.2665 93.4621
lradius 30.7516
lwrist 36.0709
lhand -29.1403 4.43512
lfingers 7.12502
lthumb -2.48717 34.4004
rfemur -27.6186 19.6263 22.1848
rtibia 26.3467
rfoot -12.3063 -10.4708
rtoes 4.85605
lfemur 0 0 0
ltibia 0
lfoot 0 0
ltoes 0
7
root 1.59805 15.6967 31.6346 170.783 -82.5745 -153.211
lowerback -26.6442 0.729695 0.561627
upperback -7.5997 -0.102099 1.92907
thorax 6.30879 -0.352872 1.73058
lowerneck -20.9639 5.20478 6.17544
upperneck 26.791 5.6227 -1.97636
head 12.6457 2.75442 -0.858994
rclavicle -9.01985e-015 2.20651e-014
rhumerus -47.1652 -1.53478 -80.3339
rradius 23.656
rwrist -16.4104
rhand -18.0684 -29.0073
rfingers 7.12502
rthumb 8.20434 -58.828
lclavicle -9.01985e-015 2.20651e-014
lhumerus -43.0905 -16.4305 93.6095
lradius 30.8364
lwrist 36.2687
lhand -29.0191 4.42932
lfingers 7.12502
lthumb -2.37017 34.3959
rfemur -27.6325 19.5951 22.1555
rtibia 26.389
rfoot -12.3245 -10.3919
rtoes 4.84188
lfemur 0 0 0
ltibia 0
lfoot 0 0
ltoes 0
8
root 1.6022 15.6967 31.6341 171.146 -82.5327 -153.6
lowerback -26.5832 0.712475 0.486625
upperback -7.59352 -0.101806 1.93061
thorax 6.28553 -0.352019 1.77519
lowerneck -21.0424 5.22363 6.12206
upperneck 26.833 5.63303 -1.87571
head 12.6736 2.76665 -0.807959
rclavicle 4.87022e-015 1.09332e-014
rhumerus -47.2706 -0.831093 -80.7273
rradius 24.0175
rwrist -17.1964
rhand -17.9897 -28.9947
rfingers 7.12502
rthumb 8.28024 -58.8125
lclavicle 4.87022e-015 1.09332e-014
lhumerus -43.2277 -16.6172 93.7658
lradius 30.923
lwrist 36.4534
lhand -28.8925 4.42856
lfingers 7.12502
lthumb -2.24793 34.3965
rfemur -27.6419 19.5637 22.136
rtibia 26.4168
rfoot -12.3375 -10.3143
rtoes 4.84237
lfemur 0 0 0
ltibia 0
lfoot 0 0
ltoes 0
9
root 1.6064 15.6969 31.6338 171.388 -82.4942 -153.862
lowerback -26.5278 0.705444 0.434335
upperback -7.58687 -0.0938025 1.92417
thorax 6.2653 -0.347407 1.80037
lowerneck -21.1016 5.23227 6.10769
upperneck 26.8506 5.62403 -1.8014
head 12.6892 2.77117 -0.777263
rclavicle -1.13556e-014 -8.74653e-015
rhumerus -47.402 -0.0838815 -81.181
rradius 24.4347
rwrist -17.982
rhand -17.817 -29.0373
rfingers 7.12502
rthumb 8.44693 -58.8483
lclavicle -1.13556e-014 -8.74653e-015
lhumerus -43.3673 -16.8326 93.9267
lradius 31.0073
lwrist 36.6167
lhand -28.7592 4.42497
lfingers 7.12502
lthumb -2.11912 34.3942
rfemur -27.646 19.5333 22.1287
rtibia 26.4247
rfoot -12.3429 -10.2409
rtoes 4.85322
lfemur 0 0 0
ltibia 0
lfoot 0 0
ltoes 0
